<svg width="39" height="20" viewBox="0 0 39 20" fill="none" xmlns="http://www.w3.org/2000/svg">
<path d="M10 9C9.44772 9 9 9.44772 9 10C9 10.5523 9.44772 11 10 11V9ZM29.7071 10.7071C30.0976 10.3166 30.0976 9.68342 29.7071 9.29289L23.3431 2.92893C22.9526 2.53841 22.3195 2.53841 21.9289 2.92893C21.5384 3.31946 21.5384 3.95262 21.9289 4.34315L27.5858 10L21.9289 15.6569C21.5384 16.0474 21.5384 16.6805 21.9289 17.0711C22.3195 17.4616 22.9526 17.4616 23.3431 17.0711L29.7071 10.7071ZM10 11H29V9H10V11Z" fill="#40ACBA"/>
</svg>
