<svg width="67" height="65" viewBox="0 0 67 65" fill="none" xmlns="http://www.w3.org/2000/svg">
<path fill-rule="evenodd" clip-rule="evenodd" d="M46.4393 35.3933C48.7422 36.0962 50.8439 37.5265 52.3682 39.6245C56.0958 44.7551 54.9585 51.9361 49.8279 55.6637C44.6972 59.3914 37.5162 58.254 33.7886 53.1234C32.2643 51.0254 31.5535 48.5845 31.5966 46.1771L31.554 46.208L31.613 45.7348C31.6424 45.213 31.7072 44.6938 31.8069 44.1812L33.2252 32.8117L44.1044 34.9369C44.8946 35.0081 45.6766 35.1607 46.4366 35.3925L46.4396 35.393L46.4393 35.3933Z" fill="#FAE0BE"/>
<path fill-rule="evenodd" clip-rule="evenodd" d="M34.774 45.6987C34.8171 48.1061 34.1063 50.547 32.582 52.645C28.8543 57.7757 21.6733 58.913 16.5427 55.1854C11.4121 51.4578 10.2747 44.2768 14.0023 39.1462C15.5266 37.0481 17.6284 35.6179 19.9313 34.9149L19.8887 34.884L20.3569 34.7939C20.8623 34.6606 21.3762 34.5618 21.8946 34.4981L33.1458 32.3337L34.4865 43.337C34.663 44.1107 34.7595 44.9015 34.7739 45.696L34.7743 45.699L34.774 45.6987Z" fill="#FAE0BE"/>
<path fill-rule="evenodd" clip-rule="evenodd" d="M21.3691 37.7863C19.0929 38.5713 16.5518 38.6495 14.0854 37.8482C8.05397 35.8884 4.75322 29.4104 6.71294 23.379C8.67266 17.3475 15.1508 14.0468 21.1822 16.0065C23.6486 16.8079 25.6583 18.3648 27.0385 20.3378L27.0548 20.2877L27.2855 20.7057C27.5682 21.1448 27.8207 21.6026 28.0413 22.0755L33.5769 32.1078L23.5261 36.7833C22.845 37.1901 22.1229 37.5262 21.3719 37.7854L21.369 37.7867L21.3691 37.7863Z" fill="#FAE0BE"/>
<path fill-rule="evenodd" clip-rule="evenodd" d="M24.749 22.5915C23.2991 20.6692 22.4395 18.2767 22.4395 15.6834C22.4395 9.34163 27.5805 4.20059 33.9223 4.20059C40.2641 4.20059 45.4051 9.34163 45.4051 15.6834C45.4051 18.2767 44.5455 20.6692 43.0955 22.5915H43.1482L42.8224 22.9395C42.4919 23.3445 42.1342 23.7265 41.7522 24.0828L33.922 32.4471L26.3697 24.3332C25.7722 23.811 25.2293 23.228 24.7507 22.5937L24.7486 22.5915H24.749Z" fill="#FAE0BE"/>
<path fill-rule="evenodd" clip-rule="evenodd" d="M40.2415 21.1126C41.6217 19.1397 43.6314 17.5828 46.0977 16.7815C52.1291 14.8218 58.6072 18.1225 60.5669 24.1539C62.5267 30.1853 59.2259 36.6634 53.1945 38.6231C50.7282 39.4245 48.1872 39.3462 45.9109 38.5614L45.9272 38.6114L45.4961 38.4094C45.0083 38.22 44.5341 37.9977 44.0768 37.7442L33.703 32.8823L39.0855 23.1931C39.3976 22.463 39.7846 21.766 40.2403 21.1143L40.2414 21.1124L40.2415 21.1126Z" fill="#FAE0BE"/>
<path d="M32.6774 25.0865C32.7543 24.1591 34.1117 24.1591 34.1886 25.0865C34.2516 25.8458 35.2696 26.0483 35.6184 25.3709C36.0443 24.5435 37.2984 25.063 37.0145 25.9492C36.7821 26.6748 37.6451 27.2515 38.2266 26.7591C38.9367 26.1577 39.8966 27.1175 39.2952 27.8277C38.8028 28.4091 39.3794 29.2721 40.1051 29.0397C40.9913 28.7559 41.5107 30.01 40.6834 30.4359C40.0059 30.7847 40.2084 31.8027 40.9678 31.8656C41.8951 31.9425 41.8951 33.2999 40.9678 33.3768C40.2084 33.4398 40.0059 34.4578 40.6834 34.8066C41.5107 35.2325 40.9913 36.4866 40.1051 36.2027C39.3794 35.9703 38.8028 36.8334 39.2952 37.4148C39.8966 38.1249 38.9367 39.0848 38.2266 38.4834C37.6451 37.991 36.7821 38.5676 37.0145 39.2933C37.2984 40.1795 36.0443 40.6989 35.6184 39.8716C35.2696 39.1941 34.2516 39.3966 34.1886 40.156C34.1117 41.0833 32.7543 41.0833 32.6774 40.156C32.6145 39.3966 31.5965 39.1941 31.2477 39.8716C30.8218 40.6989 29.5677 40.1795 29.8515 39.2933C30.0839 38.5676 29.2209 37.991 28.6395 38.4834C27.9293 39.0848 26.9695 38.1249 27.5709 37.4148C28.0633 36.8334 27.4866 35.9703 26.761 36.2027C25.8748 36.4866 25.3553 35.2325 26.1827 34.8066C26.8601 34.4578 26.6576 33.4398 25.8983 33.3768C24.9709 33.2999 24.9709 31.9425 25.8983 31.8656C26.6576 31.8027 26.8601 30.7847 26.1827 30.4359C25.3553 30.01 25.8748 28.7559 26.761 29.0397C27.4866 29.2721 28.0633 28.4091 27.5709 27.8277C26.9695 27.1175 27.9293 26.1577 28.6395 26.7591C29.2209 27.2515 30.0839 26.6748 29.8515 25.9492C29.5677 25.063 30.8218 24.5435 31.2477 25.3709C31.5965 26.0483 32.6145 25.8458 32.6774 25.0865Z" fill="#F4B442"/>
<path d="M42.2612 23.7931L33.4331 32.6212" stroke="#DC8433" stroke-width="0.594515"/>
<circle cx="42.2612" cy="23.7931" r="1.78354" transform="rotate(45 42.2612 23.7931)" fill="#F4B442"/>
<path d="M44.9673 27.8435L33.4328 32.6212" stroke="#DC8433" stroke-width="0.594515"/>
<circle cx="44.9679" cy="27.8435" r="1.78354" transform="rotate(67.5 44.9679 27.8435)" fill="#F4B442"/>
<path d="M45.918 32.6212L33.4332 32.6212" stroke="#DC8433" stroke-width="0.594515"/>
<circle cx="45.9176" cy="32.6212" r="1.78354" transform="rotate(90 45.9176 32.6212)" fill="#F4B442"/>
<path d="M44.9673 37.399L33.4328 32.6212" stroke="#DC8433" stroke-width="0.594515"/>
<circle cx="44.9675" cy="37.399" r="1.78354" transform="rotate(112.5 44.9675 37.399)" fill="#F4B442"/>
<path d="M42.2612 41.4493L33.4331 32.6212" stroke="#DC8433" stroke-width="0.594515"/>
<circle cx="42.2609" cy="41.4493" r="1.78354" transform="rotate(135 42.2609 41.4493)" fill="#F4B442"/>
<path d="M38.2104 44.1557L33.4327 32.6212" stroke="#DC8433" stroke-width="0.594515"/>
<circle cx="38.2107" cy="44.1557" r="1.78354" transform="rotate(157.5 38.2107 44.1557)" fill="#F4B442"/>
<path d="M33.4331 45.106L33.4331 32.6212" stroke="#DC8433" stroke-width="0.594515"/>
<circle cx="33.4333" cy="45.1061" r="1.78354" transform="rotate(180 33.4333 45.1061)" fill="#F4B442"/>
<path d="M28.6553 44.1557L33.433 32.6212" stroke="#DC8433" stroke-width="0.594515"/>
<circle cx="28.6558" cy="44.1557" r="1.78354" transform="rotate(-157.5 28.6558 44.1557)" fill="#F4B442"/>
<path d="M24.6055 41.4493L33.4336 32.6212" stroke="#DC8433" stroke-width="0.594515"/>
<circle cx="24.6055" cy="41.4493" r="1.78354" transform="rotate(-135 24.6055 41.4493)" fill="#F4B442"/>
<path d="M21.8994 37.399L33.4339 32.6212" stroke="#DC8433" stroke-width="0.594515"/>
<circle cx="21.8988" cy="37.399" r="1.78354" transform="rotate(-112.5 21.8988 37.399)" fill="#F4B442"/>
<path d="M20.9482 32.6212L33.4331 32.6212" stroke="#DC8433" stroke-width="0.594515"/>
<circle cx="20.9481" cy="32.6212" r="1.78354" transform="rotate(-90 20.9481 32.6212)" fill="#F4B442"/>
<path d="M21.8994 27.8435L33.4339 32.6212" stroke="#DC8433" stroke-width="0.594515"/>
<circle cx="21.8992" cy="27.8435" r="1.78354" transform="rotate(-67.5 21.8992 27.8435)" fill="#F4B442"/>
<path d="M24.6055 23.7932L33.4336 32.6212" stroke="#DC8433" stroke-width="0.594515"/>
<circle cx="24.6058" cy="23.7932" r="1.78354" transform="rotate(-45 24.6058 23.7932)" fill="#F4B442"/>
<path d="M28.6562 21.0868L33.434 32.6212" stroke="#DC8433" stroke-width="0.594515"/>
<circle cx="28.656" cy="21.0868" r="1.78354" transform="rotate(-22.5 28.656 21.0868)" fill="#F4B442"/>
<path d="M33.4336 20.1364V32.6212" stroke="#DC8433" stroke-width="0.594515"/>
<circle cx="33.4339" cy="20.1364" r="1.78354" fill="#F4B442"/>
<path d="M38.2104 21.0868L33.4327 32.6212" stroke="#DC8433" stroke-width="0.594515"/>
<circle cx="38.2104" cy="21.0868" r="1.78354" transform="rotate(22.5 38.2104 21.0868)" fill="#F4B442"/>
</svg>
