<svg width="446" height="446" viewBox="0 0 446 446" fill="none" xmlns="http://www.w3.org/2000/svg">
<g clip-path="url(#clip0_2007_3386)">
<mask id="mask0_2007_3386" style="mask-type:luminance" maskUnits="userSpaceOnUse" x="0" y="0" width="446" height="446">
<path d="M445.319 0H0.248047V445.071H445.319V0Z" fill="white"/>
</mask>
<g mask="url(#mask0_2007_3386)">
<path fill-rule="evenodd" clip-rule="evenodd" d="M65.4271 65.1791C43.1213 87.4849 35.0655 118.645 41.26 147.346C16.5851 163.26 0.248047 190.99 0.248047 222.535C0.248043 254.08 16.5851 281.81 41.26 297.726C35.0655 326.426 43.1213 357.585 65.4271 379.892C87.7332 402.197 118.893 410.253 147.594 404.06C163.509 428.734 191.238 445.071 222.783 445.071C254.328 445.071 282.058 428.734 297.974 404.06C326.674 410.253 357.833 402.197 380.14 379.892C402.445 357.585 410.501 326.426 404.308 297.726C428.983 281.81 445.319 254.08 445.319 222.535C445.319 190.99 428.983 163.26 404.308 147.346C410.501 118.645 402.445 87.4851 380.14 65.1791C357.833 42.8732 326.674 34.8174 297.974 41.0119C282.058 16.3371 254.328 0 222.783 0C191.238 0 163.508 16.337 147.594 41.0117C118.893 34.8174 87.7332 42.8732 65.4271 65.1791Z" fill="url(#paint0_linear_2007_3386)" fill-opacity="0.8"/>
</g>
</g>
<defs>
<linearGradient id="paint0_linear_2007_3386" x1="394.136" y1="-2.23153e-05" x2="88.1495" y2="339.366" gradientUnits="userSpaceOnUse">
<stop offset="1" stop-color="#6EBFAE"/>
</linearGradient>
<clipPath id="clip0_2007_3386">
<rect width="445.071" height="445.071" fill="white" transform="translate(0.248047)"/>
</clipPath>
</defs>
</svg>
