<svg width="637" height="37" viewBox="0 0 637 37" fill="none" xmlns="http://www.w3.org/2000/svg">
<path d="M9.39502 27.0156C40.1025 27.0156 40.1025 10.0963 70.8101 10.0963C101.518 10.0963 101.518 27.0156 132.225 27.0156C162.933 27.0156 162.933 10.0963 193.568 10.0963C224.277 10.0963 224.277 27.0156 254.911 27.0156C285.619 27.0156 285.619 10.0963 316.254 10.0963C346.962 10.0963 346.962 27.0156 377.668 27.0156C408.376 27.0156 408.376 10.0963 439.085 10.0963C469.791 10.0963 469.825 23.8135 500.534 23.8135C531.242 23.8135 531.207 10.0963 561.915 10.0963C592.621 10.0963 596.687 22.4392 627.395 22.4392" stroke="#FAE0BE" stroke-width="18.2972" stroke-miterlimit="10" stroke-linecap="round"/>
</svg>
