 <svg width="828" height="44" viewBox="0 0 828 44" fill="none" xmlns="http://www.w3.org/2000/svg">
<path d="M8 8C48.3672 8 48.3672 35.741 88.7345 35.741C129.102 35.741 129.102 8 169.469 8C209.836 8 209.836 35.741 250.109 35.741C290.477 35.741 290.477 8 330.749 8C371.117 8 371.117 35.741 411.388 35.741C451.756 35.741 451.756 8 492.122 8C532.49 8 532.49 35.741 572.858 35.741C613.223 35.741 613.269 13.2502 653.637 13.2502C694.005 13.2502 693.959 35.741 734.327 35.741C774.692 35.741 780.037 15.5034 820.405 15.5034" stroke="#BDDDF4" stroke-width="15" stroke-miterlimit="10" stroke-linecap="round"/>
</svg>
