<svg width="478" height="248" viewBox="0 0 478 248" fill="none" xmlns="http://www.w3.org/2000/svg">
<path fill-rule="evenodd" clip-rule="evenodd" d="M255.564 27.3472C303.912 29.0139 356.465 -2.67888 396.019 15.2981C435.456 33.222 411.259 74.5224 424.94 104.327C438.042 132.873 492.884 158.271 474.133 185.48C454.87 213.432 388.972 207.093 345.564 219.509C314.247 228.467 289.831 247.77 255.564 247.998C221.154 248.227 196.754 227.904 164.205 220.714C110.481 208.846 27.5416 225.652 3.90064 192.403C-18.6313 160.713 63.0431 136.126 80.6247 103.163C97.701 71.1481 60.1221 24.1245 103.739 5.22175C147.863 -13.9011 202.45 25.516 255.564 27.3472Z" fill="#BDDDF4"/>
</svg>
