<svg width="220" height="7" viewBox="0 0 220 7" fill="none" xmlns="http://www.w3.org/2000/svg">
<path id="Waves" d="M2 5C12.7327 5 12.7327 2 23.4655 2C34.1982 2 34.1982 5 44.9309 5C55.6636 5 55.6636 2 66.3712 2C77.1043 2 77.1043 5 87.8115 5C98.5445 5 98.5445 2 109.252 2C119.985 2 119.985 5 130.717 5C141.45 5 141.45 2 152.183 2C162.915 2 162.927 4.43223 173.66 4.43223C184.393 4.43223 184.381 2 195.114 2C205.846 2 207.267 4.18855 218 4.18855" stroke="#FAE0BE" stroke-width="3.24283" stroke-miterlimit="10" stroke-linecap="round"/>
</svg>
