<svg width="34" height="34" viewBox="0 0 34 34" fill="none" xmlns="http://www.w3.org/2000/svg">
<g id="Frame" clip-path="url(#clip0_1908_3985)">
<path id="Vector" d="M17 0.94458C7.61128 0.94458 0 6.86436 0 14.1668C0 18.2921 2.431 21.9755 6.23711 24.3999C5.74222 26.5806 4.58906 29.8153 1.88889 33.0557C7.327 32.149 10.8035 29.5036 12.954 26.9961C14.2536 27.2436 15.6032 27.389 17 27.389C26.3887 27.389 34 21.4692 34 14.1668C34 6.86436 26.3887 0.94458 17 0.94458Z" fill="#FAE0BE"/>
<path id="Vector_2" d="M16.9997 16.0555C18.0429 16.0555 18.8886 15.2098 18.8886 14.1666C18.8886 13.1234 18.0429 12.2777 16.9997 12.2777C15.9565 12.2777 15.1108 13.1234 15.1108 14.1666C15.1108 15.2098 15.9565 16.0555 16.9997 16.0555Z" fill="#2A6797"/>
<path id="Vector_3" d="M24.5564 16.0555C25.5996 16.0555 26.4453 15.2098 26.4453 14.1666C26.4453 13.1234 25.5996 12.2777 24.5564 12.2777C23.5132 12.2777 22.6675 13.1234 22.6675 14.1666C22.6675 15.2098 23.5132 16.0555 24.5564 16.0555Z" fill="#2A6797"/>
<path id="Vector_4" d="M9.44309 16.0555C10.4863 16.0555 11.332 15.2098 11.332 14.1666C11.332 13.1234 10.4863 12.2777 9.44309 12.2777C8.39988 12.2777 7.5542 13.1234 7.5542 14.1666C7.5542 15.2098 8.39988 16.0555 9.44309 16.0555Z" fill="#2A6797"/>
</g>
<defs>
<clipPath id="clip0_1908_3985">
<rect width="34" height="34" fill="white"/>
</clipPath>
</defs>
</svg>
