<svg width="36" height="39" viewBox="0 0 36 39" fill="none" xmlns="http://www.w3.org/2000/svg">
<g id="Frame">
<path id="Vector" d="M18 1.08057C8.059 1.08057 0 7.85308 0 16.2074C0 20.927 2.574 25.1409 6.604 27.9145C6.08 30.4094 4.859 34.1101 2 37.8172C7.758 36.78 11.439 33.7535 13.716 30.8848C15.092 31.1679 16.521 31.3343 18 31.3343C27.941 31.3343 36 24.5618 36 16.2074C36 7.85308 27.941 1.08057 18 1.08057Z" fill="#BDDDF4"/>
<path id="Vector_2" d="M18 18.3683C19.1046 18.3683 20 17.4008 20 16.2074C20 15.0139 19.1046 14.0464 18 14.0464C16.8954 14.0464 16 15.0139 16 16.2074C16 17.4008 16.8954 18.3683 18 18.3683Z" fill="#2A6797"/>
<path id="Vector_3" d="M26 18.3683C27.1046 18.3683 28 17.4008 28 16.2074C28 15.0139 27.1046 14.0464 26 14.0464C24.8954 14.0464 24 15.0139 24 16.2074C24 17.4008 24.8954 18.3683 26 18.3683Z" fill="#2A6797"/>
<path id="Vector_4" d="M10 18.3683C11.1046 18.3683 12 17.4008 12 16.2074C12 15.0139 11.1046 14.0464 10 14.0464C8.89543 14.0464 8 15.0139 8 16.2074C8 17.4008 8.89543 18.3683 10 18.3683Z" fill="#2A6797"/>
</g>
</svg>
