<svg width="20" height="19" viewBox="0 0 20 19" fill="none" xmlns="http://www.w3.org/2000/svg">
<g id="Frame" clip-path="url(#clip0_831_1943)">
<path id="Vector" d="M3.44911 4.75711C3.93797 4.41543 4.6749 4.48096 5.11383 4.84344L4.61041 4.11172C4.20528 3.53393 4.35038 2.90881 4.92869 2.50316C5.50699 2.09908 7.14571 3.18549 7.14571 3.18549C6.73694 2.60198 6.81339 1.86245 7.3969 1.45316C7.98041 1.04543 8.78546 1.18637 9.19423 1.77092L14.6133 9.42623L13.9226 16.122L8.15879 14.0199L3.13135 6.56589C2.71894 5.97874 2.86144 5.169 3.44911 4.75711Z" fill="#EF9645"/>
<path id="Vector_2" d="M2.32285 9.01593C2.32285 9.01593 1.73414 8.15783 2.59276 7.56964C3.45035 6.98145 4.03853 7.83903 4.03853 7.83903L6.76938 11.8217C6.86351 11.6646 6.96648 11.5096 7.08142 11.3567L3.29121 5.83003C3.29121 5.83003 2.70302 4.97245 3.56112 4.38426C4.4187 3.79607 5.00689 4.65365 5.00689 4.65365L8.57191 9.85271C8.70453 9.74454 8.84026 9.63584 8.98016 9.52923L4.84723 3.5012C4.84723 3.5012 4.25904 2.64361 5.11714 2.05543C5.97472 1.46724 6.56291 2.32482 6.56291 2.32482L10.6958 8.35181C10.8477 8.25872 10.998 8.17811 11.1488 8.09282L7.2858 2.45951C7.2858 2.45951 6.69761 1.60193 7.55519 1.01374C8.41277 0.425552 9.00096 1.28313 9.00096 1.28313L13.0855 7.23992L13.7065 8.14587C11.1332 9.91096 10.8883 13.2316 12.3585 15.3758C12.6523 15.8048 13.0814 15.511 13.0814 15.511C11.3168 12.9372 11.8556 10.0451 14.4294 8.28056L13.6706 4.48307C13.6706 4.48307 13.3872 3.48247 14.3872 3.19852C15.3878 2.91509 15.6718 3.91569 15.6718 3.91569L16.5481 6.51807C16.8955 7.54988 17.2653 8.57804 17.7546 9.55055C19.1364 12.2965 18.3111 15.7091 15.7056 17.4966C12.8635 19.4453 8.97808 18.7208 7.02889 15.8792L2.32285 9.01593Z" fill="#FFDC5D"/>
<g id="Group">
<path id="Vector_3" d="M7.16191 16.6638C5.08167 16.6638 2.97958 14.5617 2.97958 12.4815C2.97958 12.1939 2.76895 11.9614 2.48136 11.9614C2.19376 11.9614 1.93945 12.1939 1.93945 12.4815C1.93945 15.6019 4.04154 17.7039 7.16191 17.7039C7.44951 17.7039 7.68197 17.4496 7.68197 17.162C7.68197 16.8744 7.44951 16.6638 7.16191 16.6638Z" fill="#5DADEC"/>
<path id="Vector_4" d="M4.56133 17.682C3.00115 17.682 1.96102 16.6419 1.96102 15.0817C1.96102 14.7941 1.72855 14.5616 1.44096 14.5616C1.15337 14.5616 0.920898 14.7941 0.920898 15.0817C0.920898 17.162 2.48108 18.7221 4.56133 18.7221C4.84892 18.7221 5.08139 18.4897 5.08139 18.2021C5.08139 17.9145 4.84892 17.682 4.56133 17.682ZM13.4024 1.04004C13.1153 1.04004 12.8823 1.27303 12.8823 1.5601C12.8823 1.84717 13.1153 2.08016 13.4024 2.08016C15.4826 2.08016 17.5629 3.94666 17.5629 6.24066C17.5629 6.52773 17.7959 6.76072 18.0829 6.76072C18.37 6.76072 18.603 6.52773 18.603 6.24066C18.603 3.37304 16.5228 1.04004 13.4024 1.04004Z" fill="#5DADEC"/>
<path id="Vector_5" d="M16.0025 0.0219727C15.7154 0.0219727 15.4824 0.233118 15.4824 0.520192C15.4824 0.807266 15.7154 1.0621 16.0025 1.0621C17.5627 1.0621 18.5809 2.21923 18.5809 3.64056C18.5809 3.92764 18.8353 4.16062 19.1229 4.16062C19.4104 4.16062 19.6211 3.92764 19.6211 3.64056C19.6211 1.64509 18.0827 0.0219727 16.0025 0.0219727Z" fill="#5DADEC"/>
</g>
</g>
<defs>
<clipPath id="clip0_831_1943">
<rect width="18.7222" height="18.7222" fill="white" transform="translate(0.920898)"/>
</clipPath>
</defs>
</svg>
