<svg width="459" height="249" viewBox="0 0 459 249" fill="none" xmlns="http://www.w3.org/2000/svg">
<path d="M54.3405 173.166C48.5643 173.166 43.109 172.043 37.9746 169.797C32.8402 167.55 28.3744 164.368 24.577 160.25C20.8332 156.132 18.1323 151.265 16.4743 145.649L35.1667 140.595C36.5038 145.194 38.9373 148.751 42.4672 151.265C46.0506 153.725 49.9816 154.928 54.2603 154.875C58.0576 154.875 61.4538 153.992 64.4489 152.227C67.444 150.462 69.7972 148.082 71.5087 145.087C73.2202 142.039 74.0759 138.643 74.0759 134.899C74.0759 129.176 72.2307 124.389 68.5404 120.538C64.85 116.688 60.09 114.762 54.2603 114.762C52.4954 114.762 50.7571 115.003 49.0457 115.484C47.3877 115.966 45.7832 116.634 44.2322 117.49L35.4074 102.247L74.2363 69.034L75.9211 73.687H20.9669V55.4759H91.8056V73.7672L60.5981 103.771L60.4376 98.0754C67.444 98.5568 73.4074 100.509 78.3278 103.932C83.3018 107.355 87.0991 111.767 89.7198 117.169C92.3939 122.571 93.731 128.481 93.731 134.899C93.731 142.172 91.9393 148.697 88.356 154.474C84.826 160.25 80.066 164.823 74.0759 168.192C68.1392 171.508 61.5608 173.166 54.3405 173.166ZM111.309 170.84V153.992L160.728 109.949C164.579 106.526 167.253 103.29 168.75 100.242C170.248 97.193 170.997 94.2514 170.997 91.4168C170.997 87.566 170.168 84.143 168.51 81.148C166.852 78.0994 164.552 75.6926 161.61 73.9277C158.722 72.1627 155.379 71.2803 151.582 71.2803C147.571 71.2803 144.014 72.2162 140.912 74.0881C137.864 75.9066 135.484 78.3401 133.772 81.3886C132.061 84.4372 131.258 87.7264 131.365 91.2563H111.47C111.47 83.5547 113.181 76.8425 116.604 71.1198C120.08 65.3971 124.84 60.958 130.884 57.8025C136.981 54.6469 144.014 53.0692 151.983 53.0692C159.364 53.0692 165.996 54.7272 171.879 58.0431C177.762 61.3056 182.388 65.8517 185.758 71.6814C189.127 77.4576 190.812 84.1163 190.812 91.6574C190.812 97.1662 190.063 101.793 188.566 105.536C187.068 109.28 184.822 112.73 181.827 115.885C178.885 119.041 175.222 122.544 170.836 126.395L135.778 157.442L134.013 152.628H190.812V170.84H111.309ZM251.655 173.407C243.472 173.407 236.252 171.669 229.995 168.192C223.737 164.662 218.843 159.768 215.313 153.511C211.837 147.253 210.099 140.033 210.099 131.85V94.6258C210.099 86.4428 211.837 79.2225 215.313 72.965C218.843 66.7074 223.737 61.8404 229.995 58.364C236.252 54.8341 243.472 53.0692 251.655 53.0692C259.838 53.0692 267.032 54.8341 273.236 58.364C279.493 61.8404 284.387 66.7074 287.917 72.965C291.447 79.2225 293.212 86.4428 293.212 94.6258V131.85C293.212 140.033 291.447 147.253 287.917 153.511C284.387 159.768 279.493 164.662 273.236 168.192C267.032 171.669 259.838 173.407 251.655 173.407ZM251.655 155.035C255.72 155.035 259.41 154.073 262.726 152.147C266.042 150.168 268.663 147.548 270.588 144.285C272.514 140.969 273.476 137.279 273.476 133.214V93.1817C273.476 89.0635 272.514 85.3731 270.588 82.1106C268.663 78.7947 266.042 76.174 262.726 74.2486C259.41 72.2697 255.72 71.2803 251.655 71.2803C247.591 71.2803 243.9 72.2697 240.584 74.2486C237.268 76.174 234.648 78.7947 232.722 82.1106C230.797 85.3731 229.834 89.0635 229.834 93.1817V133.214C229.834 137.279 230.797 140.969 232.722 144.285C234.648 147.548 237.268 150.168 240.584 152.147C243.9 154.073 247.591 155.035 251.655 155.035ZM331.752 171L318.916 158.164L421.685 55.4759L434.521 68.3922L331.752 171ZM410.453 173.407C405.158 173.407 400.318 172.123 395.933 169.556C391.6 166.935 388.124 163.459 385.503 159.127C382.883 154.741 381.572 149.874 381.572 144.526C381.572 139.284 382.909 134.471 385.583 130.085C388.258 125.7 391.788 122.196 396.173 119.576C400.559 116.955 405.319 115.645 410.453 115.645C415.748 115.645 420.588 116.955 424.974 119.576C429.36 122.143 432.836 125.619 435.403 130.005C438.024 134.337 439.334 139.177 439.334 144.526C439.334 149.874 438.024 154.741 435.403 159.127C432.836 163.459 429.36 166.935 424.974 169.556C420.588 172.123 415.748 173.407 410.453 173.407ZM410.453 156.88C412.646 156.88 414.678 156.319 416.55 155.196C418.476 154.073 420 152.575 421.123 150.703C422.246 148.831 422.808 146.772 422.808 144.526C422.808 142.279 422.246 140.22 421.123 138.348C420 136.476 418.476 134.979 416.55 133.856C414.678 132.733 412.646 132.171 410.453 132.171C408.207 132.171 406.148 132.733 404.276 133.856C402.404 134.979 400.88 136.476 399.703 138.348C398.58 140.22 398.018 142.279 398.018 144.526C398.018 146.772 398.58 148.831 399.703 150.703C400.88 152.575 402.404 154.073 404.276 155.196C406.148 156.319 408.207 156.88 410.453 156.88ZM342.984 110.831C337.689 110.831 332.849 109.548 328.463 106.98C324.078 104.36 320.574 100.883 317.954 96.5512C315.387 92.1655 314.103 87.2985 314.103 81.9502C314.103 76.7088 315.44 71.8953 318.114 67.5097C320.788 63.124 324.318 59.6209 328.704 57.0002C333.09 54.3795 337.85 53.0692 342.984 53.0692C348.279 53.0692 353.092 54.3795 357.424 57.0002C361.81 59.5674 365.313 63.0438 367.934 67.4295C370.555 71.7616 371.865 76.6019 371.865 81.9502C371.865 87.2985 370.555 92.1655 367.934 96.5512C365.313 100.883 361.81 104.36 357.424 106.98C353.092 109.548 348.279 110.831 342.984 110.831ZM342.984 94.3049C345.23 94.3049 347.289 93.7433 349.161 92.6201C351.033 91.497 352.531 89.9994 353.654 88.1275C354.777 86.2556 355.339 84.1965 355.339 81.9502C355.339 79.7039 354.777 77.6448 353.654 75.7729C352.531 73.901 351.033 72.4034 349.161 71.2803C347.289 70.1571 345.23 69.5955 342.984 69.5955C340.738 69.5955 338.679 70.1571 336.807 71.2803C334.935 72.4034 333.437 73.901 332.314 75.7729C331.191 77.6448 330.629 79.7039 330.629 81.9502C330.629 84.1965 331.191 86.2556 332.314 88.1275C333.437 89.9994 334.935 91.497 336.807 92.6201C338.679 93.7433 340.738 94.3049 342.984 94.3049Z" fill="#FBE9E2"/>
<path d="M4.00179 241H0.941845L5.6043 227.494H9.28415L13.94 241H10.8801L7.49698 230.58H7.39147L4.00179 241ZM3.81054 235.691H11.0383V237.92H3.81054V235.691ZM15.9771 244.799V230.871H18.7469V232.572H18.8722C18.9953 232.299 19.1733 232.022 19.4064 231.741C19.6438 231.455 19.9515 231.218 20.3296 231.029C20.7121 230.835 21.1869 230.739 21.7541 230.739C22.4927 230.739 23.1741 230.932 23.7984 231.319C24.4227 231.701 24.9217 232.28 25.2954 233.053C25.6691 233.823 25.856 234.788 25.856 235.948C25.856 237.078 25.6735 238.032 25.3086 238.811C24.9481 239.584 24.4557 240.171 23.8314 240.571C23.2115 240.967 22.5169 241.165 21.7475 241.165C21.2023 241.165 20.7385 241.075 20.356 240.894C19.9779 240.714 19.6679 240.488 19.4261 240.215C19.1843 239.938 18.9997 239.659 18.8722 239.378H18.7865V244.799H15.9771ZM18.7271 235.935C18.7271 236.538 18.8106 237.063 18.9777 237.511C19.1448 237.96 19.3866 238.309 19.7031 238.56C20.0197 238.806 20.4044 238.929 20.8572 238.929C21.3144 238.929 21.7013 238.804 22.0179 238.553C22.3344 238.298 22.574 237.947 22.7367 237.498C22.9038 237.045 22.9873 236.524 22.9873 235.935C22.9873 235.351 22.9059 234.836 22.7433 234.392C22.5806 233.948 22.341 233.601 22.0245 233.35C21.7079 233.1 21.3188 232.974 20.8572 232.974C20.4 232.974 20.0131 233.095 19.6965 233.337C19.3844 233.579 19.1448 233.922 18.9777 234.366C18.8106 234.81 18.7271 235.333 18.7271 235.935ZM28.1931 244.799V230.871H30.9629V232.572H31.0882C31.2113 232.299 31.3894 232.022 31.6224 231.741C31.8598 231.455 32.1676 231.218 32.5456 231.029C32.9281 230.835 33.403 230.739 33.9701 230.739C34.7087 230.739 35.3902 230.932 36.0145 231.319C36.6388 231.701 37.1378 232.28 37.5115 233.053C37.8852 233.823 38.072 234.788 38.072 235.948C38.072 237.078 37.8896 238.032 37.5247 238.811C37.1641 239.584 36.6717 240.171 36.0474 240.571C35.4275 240.967 34.7329 241.165 33.9635 241.165C33.4183 241.165 32.9545 241.075 32.572 240.894C32.1939 240.714 31.884 240.488 31.6422 240.215C31.4004 239.938 31.2157 239.659 31.0882 239.378H31.0025V244.799H28.1931ZM30.9431 235.935C30.9431 236.538 31.0267 237.063 31.1937 237.511C31.3608 237.96 31.6026 238.309 31.9192 238.56C32.2357 238.806 32.6204 238.929 33.0732 238.929C33.5305 238.929 33.9173 238.804 34.2339 238.553C34.5504 238.298 34.79 237.947 34.9527 237.498C35.1198 237.045 35.2033 236.524 35.2033 235.935C35.2033 235.351 35.122 234.836 34.9593 234.392C34.7966 233.948 34.557 233.601 34.2405 233.35C33.9239 233.1 33.5349 232.974 33.0732 232.974C32.616 232.974 32.2291 233.095 31.9126 233.337C31.6004 233.579 31.3608 233.922 31.1937 234.366C31.0267 234.81 30.9431 235.333 30.9431 235.935ZM43.2185 227.494V241H40.4092V227.494H43.2185ZM45.9332 241V230.871H48.7426V241H45.9332ZM47.3445 229.565C46.9268 229.565 46.5685 229.426 46.2696 229.149C45.975 228.868 45.8277 228.532 45.8277 228.14C45.8277 227.753 45.975 227.422 46.2696 227.145C46.5685 226.863 46.9268 226.722 47.3445 226.722C47.7622 226.722 48.1183 226.863 48.4128 227.145C48.7118 227.422 48.8613 227.753 48.8613 228.14C48.8613 228.532 48.7118 228.868 48.4128 229.149C48.1183 229.426 47.7622 229.565 47.3445 229.565ZM56.034 241.198C54.9964 241.198 54.104 240.978 53.3566 240.538C52.6136 240.094 52.042 239.479 51.6419 238.692C51.2463 237.905 51.0484 236.999 51.0484 235.975C51.0484 234.937 51.2484 234.027 51.6485 233.245C52.053 232.458 52.6267 231.844 53.3697 231.405C54.1127 230.961 54.9964 230.739 56.0208 230.739C56.9045 230.739 57.6783 230.899 58.3422 231.22C59.006 231.541 59.5314 231.992 59.9183 232.572C60.3052 233.152 60.5184 233.834 60.558 234.616H57.9069C57.8322 234.111 57.6343 233.704 57.3134 233.396C56.9968 233.084 56.5814 232.928 56.067 232.928C55.6317 232.928 55.2514 233.047 54.9261 233.284C54.6052 233.517 54.3546 233.858 54.1743 234.306C53.994 234.755 53.9039 235.298 53.9039 235.935C53.9039 236.582 53.9918 237.131 54.1677 237.584C54.348 238.037 54.6008 238.382 54.9261 238.619C55.2514 238.857 55.6317 238.975 56.067 238.975C56.3879 238.975 56.6759 238.909 56.9309 238.778C57.1903 238.646 57.4035 238.454 57.5706 238.204C57.742 237.949 57.8541 237.643 57.9069 237.287H60.558C60.514 238.061 60.303 238.742 59.9249 239.332C59.5512 239.916 59.0346 240.374 58.3751 240.703C57.7157 241.033 56.9353 241.198 56.034 241.198ZM65.7094 241.191C65.0631 241.191 64.4872 241.079 63.9816 240.855C63.476 240.626 63.0759 240.29 62.7814 239.846C62.4912 239.397 62.3461 238.839 62.3461 238.171C62.3461 237.608 62.4494 237.136 62.6561 236.753C62.8627 236.371 63.1441 236.063 63.5002 235.83C63.8563 235.597 64.2608 235.421 64.7136 235.302C65.1709 235.183 65.6501 235.1 66.1513 235.052C66.7404 234.99 67.2152 234.933 67.5757 234.88C67.9362 234.823 68.1978 234.739 68.3605 234.63C68.5232 234.52 68.6045 234.357 68.6045 234.142V234.102C68.6045 233.684 68.4726 233.361 68.2088 233.133C67.9494 232.904 67.5801 232.79 67.1009 232.79C66.5953 232.79 66.193 232.902 65.8941 233.126C65.5951 233.346 65.3973 233.623 65.3006 233.957L62.7022 233.746C62.8341 233.13 63.0935 232.598 63.4804 232.15C63.8673 231.697 64.3663 231.35 64.9774 231.108C65.5929 230.862 66.3052 230.739 67.1141 230.739C67.6768 230.739 68.2154 230.805 68.7298 230.936C69.2486 231.068 69.708 231.273 70.1081 231.55C70.5126 231.827 70.8313 232.183 71.0643 232.618C71.2973 233.049 71.4138 233.566 71.4138 234.168V241H68.7496V239.595H68.6705C68.5078 239.912 68.2902 240.191 68.0176 240.433C67.745 240.67 67.4175 240.857 67.035 240.993C66.6525 241.125 66.2106 241.191 65.7094 241.191ZM66.514 239.252C66.9273 239.252 67.2922 239.171 67.6087 239.008C67.9252 238.841 68.1736 238.617 68.3539 238.336C68.5342 238.054 68.6243 237.736 68.6243 237.38V236.305C68.5364 236.362 68.4155 236.414 68.2616 236.463C68.1121 236.507 67.9428 236.549 67.7538 236.588C67.5647 236.623 67.3757 236.656 67.1866 236.687C66.9976 236.713 66.8261 236.738 66.6723 236.76C66.3425 236.808 66.0546 236.885 65.8083 236.99C65.5621 237.096 65.3709 237.239 65.2346 237.419C65.0983 237.595 65.0302 237.815 65.0302 238.079C65.0302 238.461 65.1687 238.753 65.4456 238.956C65.727 239.153 66.0831 239.252 66.514 239.252ZM79.4455 230.871V232.981H73.3454V230.871H79.4455ZM74.7303 228.444H77.5397V237.887C77.5397 238.147 77.5792 238.349 77.6584 238.494C77.7375 238.635 77.8474 238.734 77.9881 238.791C78.1332 238.848 78.3003 238.877 78.4893 238.877C78.6212 238.877 78.7531 238.866 78.885 238.844C79.0169 238.817 79.118 238.797 79.1883 238.784L79.6302 240.875C79.4895 240.919 79.2917 240.969 79.0367 241.026C78.7817 241.088 78.4717 241.125 78.1068 241.138C77.4298 241.165 76.8362 241.075 76.3262 240.868C75.8207 240.661 75.4272 240.341 75.1458 239.905C74.8644 239.47 74.7259 238.92 74.7303 238.257V228.444ZM81.7398 241V230.871H84.5492V241H81.7398ZM83.1511 229.565C82.7334 229.565 82.3751 229.426 82.0762 229.149C81.7816 228.868 81.6343 228.532 81.6343 228.14C81.6343 227.753 81.7816 227.422 82.0762 227.145C82.3751 226.863 82.7334 226.722 83.1511 226.722C83.5688 226.722 83.9249 226.863 84.2194 227.145C84.5184 227.422 84.6679 227.753 84.6679 228.14C84.6679 228.532 84.5184 228.868 84.2194 229.149C83.9249 229.426 83.5688 229.565 83.1511 229.565ZM91.8406 241.198C90.8162 241.198 89.9304 240.98 89.183 240.545C88.4399 240.105 87.8662 239.494 87.4617 238.712C87.0573 237.925 86.855 237.012 86.855 235.975C86.855 234.928 87.0573 234.014 87.4617 233.231C87.8662 232.444 88.4399 231.833 89.183 231.398C89.9304 230.958 90.8162 230.739 91.8406 230.739C92.865 230.739 93.7487 230.958 94.4917 231.398C95.2391 231.833 95.815 232.444 96.2195 233.231C96.624 234.014 96.8262 234.928 96.8262 235.975C96.8262 237.012 96.624 237.925 96.2195 238.712C95.815 239.494 95.2391 240.105 94.4917 240.545C93.7487 240.98 92.865 241.198 91.8406 241.198ZM91.8538 239.022C92.3198 239.022 92.7089 238.89 93.0211 238.626C93.3332 238.358 93.5684 237.993 93.7267 237.531C93.8894 237.07 93.9707 236.544 93.9707 235.955C93.9707 235.366 93.8894 234.841 93.7267 234.379C93.5684 233.917 93.3332 233.552 93.0211 233.284C92.7089 233.016 92.3198 232.882 91.8538 232.882C91.3834 232.882 90.9877 233.016 90.6668 233.284C90.3502 233.552 90.1106 233.917 89.9479 234.379C89.7897 234.841 89.7105 235.366 89.7105 235.955C89.7105 236.544 89.7897 237.07 89.9479 237.531C90.1106 237.993 90.3502 238.358 90.6668 238.626C90.9877 238.89 91.3834 239.022 91.8538 239.022ZM101.927 235.144V241H99.1172V230.871H101.795V232.658H101.913C102.138 232.069 102.513 231.603 103.041 231.26C103.569 230.912 104.208 230.739 104.96 230.739C105.664 230.739 106.277 230.893 106.8 231.2C107.323 231.508 107.73 231.948 108.02 232.519C108.31 233.086 108.455 233.763 108.455 234.55V241H105.646V235.052C105.65 234.432 105.492 233.948 105.171 233.601C104.85 233.249 104.408 233.073 103.846 233.073C103.468 233.073 103.133 233.154 102.843 233.317C102.557 233.48 102.333 233.717 102.171 234.029C102.012 234.337 101.931 234.709 101.927 235.144ZM119.562 233.759L116.99 233.917C116.946 233.697 116.851 233.5 116.706 233.324C116.561 233.144 116.37 233.001 116.133 232.895C115.9 232.785 115.62 232.73 115.295 232.73C114.86 232.73 114.493 232.823 114.194 233.007C113.895 233.187 113.745 233.429 113.745 233.733C113.745 233.974 113.842 234.179 114.035 234.346C114.229 234.513 114.561 234.647 115.031 234.748L116.865 235.118C117.849 235.32 118.584 235.645 119.067 236.094C119.551 236.542 119.793 237.131 119.793 237.861C119.793 238.525 119.597 239.107 119.206 239.609C118.819 240.11 118.287 240.501 117.61 240.782C116.937 241.059 116.161 241.198 115.282 241.198C113.941 241.198 112.873 240.919 112.077 240.36C111.285 239.798 110.822 239.033 110.685 238.065L113.448 237.92C113.532 238.329 113.734 238.641 114.055 238.857C114.376 239.068 114.787 239.173 115.288 239.173C115.781 239.173 116.177 239.079 116.475 238.89C116.779 238.696 116.933 238.448 116.937 238.144C116.933 237.889 116.825 237.681 116.614 237.518C116.403 237.351 116.078 237.223 115.638 237.136L113.884 236.786C112.895 236.588 112.158 236.245 111.675 235.757C111.195 235.269 110.956 234.647 110.956 233.891C110.956 233.24 111.132 232.68 111.483 232.209C111.839 231.739 112.338 231.376 112.98 231.121C113.627 230.866 114.383 230.739 115.249 230.739C116.528 230.739 117.535 231.009 118.269 231.55C119.008 232.091 119.439 232.827 119.562 233.759ZM134.168 231.378C134.115 230.846 133.889 230.433 133.488 230.139C133.088 229.844 132.545 229.697 131.86 229.697C131.394 229.697 131 229.763 130.679 229.895C130.358 230.022 130.112 230.2 129.941 230.429C129.773 230.657 129.69 230.917 129.69 231.207C129.681 231.449 129.732 231.66 129.842 231.84C129.956 232.02 130.112 232.176 130.31 232.308C130.508 232.436 130.736 232.548 130.996 232.645C131.255 232.737 131.532 232.816 131.827 232.882L133.04 233.172C133.629 233.304 134.17 233.48 134.662 233.7C135.155 233.919 135.581 234.19 135.942 234.511C136.302 234.832 136.581 235.21 136.779 235.645C136.981 236.08 137.085 236.579 137.089 237.142C137.085 237.969 136.874 238.685 136.456 239.292C136.043 239.894 135.445 240.363 134.662 240.697C133.884 241.026 132.946 241.191 131.846 241.191C130.756 241.191 129.806 241.024 128.997 240.69C128.193 240.356 127.564 239.861 127.111 239.206C126.663 238.547 126.428 237.731 126.406 236.76H129.169C129.2 237.212 129.329 237.591 129.558 237.894C129.791 238.193 130.101 238.419 130.488 238.573C130.879 238.723 131.321 238.797 131.813 238.797C132.297 238.797 132.717 238.727 133.073 238.586C133.434 238.446 133.713 238.25 133.911 237.999C134.108 237.749 134.207 237.461 134.207 237.136C134.207 236.832 134.117 236.577 133.937 236.371C133.761 236.164 133.502 235.988 133.159 235.843C132.82 235.698 132.405 235.566 131.912 235.447L130.442 235.078C129.303 234.801 128.404 234.368 127.744 233.779C127.085 233.19 126.757 232.396 126.762 231.398C126.757 230.58 126.975 229.866 127.415 229.255C127.859 228.644 128.468 228.167 129.241 227.824C130.015 227.481 130.895 227.309 131.879 227.309C132.882 227.309 133.757 227.481 134.504 227.824C135.256 228.167 135.841 228.644 136.258 229.255C136.676 229.866 136.891 230.574 136.905 231.378H134.168ZM139.421 244.799V230.871H142.191V232.572H142.316C142.44 232.299 142.618 232.022 142.851 231.741C143.088 231.455 143.396 231.218 143.774 231.029C144.156 230.835 144.631 230.739 145.198 230.739C145.937 230.739 146.618 230.932 147.243 231.319C147.867 231.701 148.366 232.28 148.74 233.053C149.113 233.823 149.3 234.788 149.3 235.948C149.3 237.078 149.118 238.032 148.753 238.811C148.392 239.584 147.9 240.171 147.276 240.571C146.656 240.967 145.961 241.165 145.192 241.165C144.647 241.165 144.183 241.075 143.8 240.894C143.422 240.714 143.112 240.488 142.87 240.215C142.629 239.938 142.444 239.659 142.316 239.378H142.231V244.799H139.421ZM142.171 235.935C142.171 236.538 142.255 237.063 142.422 237.511C142.589 237.96 142.831 238.309 143.147 238.56C143.464 238.806 143.849 238.929 144.301 238.929C144.759 238.929 145.146 238.804 145.462 238.553C145.779 238.298 146.018 237.947 146.181 237.498C146.348 237.045 146.432 236.524 146.432 235.935C146.432 235.351 146.35 234.836 146.188 234.392C146.025 233.948 145.785 233.601 145.469 233.35C145.152 233.1 144.763 232.974 144.301 232.974C143.844 232.974 143.457 233.095 143.141 233.337C142.829 233.579 142.589 233.922 142.422 234.366C142.255 234.81 142.171 235.333 142.171 235.935ZM151.637 241V230.871H154.447V241H151.637ZM153.049 229.565C152.631 229.565 152.273 229.426 151.974 229.149C151.679 228.868 151.532 228.532 151.532 228.14C151.532 227.753 151.679 227.422 151.974 227.145C152.273 226.863 152.631 226.722 153.049 226.722C153.466 226.722 153.822 226.863 154.117 227.145C154.416 227.422 154.565 227.753 154.565 228.14C154.565 228.532 154.416 228.868 154.117 229.149C153.822 229.426 153.466 229.565 153.049 229.565ZM159.707 238.085L159.714 234.715H160.123L163.367 230.871H166.592L162.233 235.962H161.567L159.707 238.085ZM157.161 241V227.494H159.971V241H157.161ZM163.492 241L160.512 236.588L162.384 234.603L166.783 241H163.492ZM172.634 241.198C171.592 241.198 170.695 240.987 169.943 240.565C169.196 240.138 168.62 239.536 168.215 238.758C167.811 237.975 167.608 237.05 167.608 235.981C167.608 234.939 167.811 234.025 168.215 233.238C168.62 232.451 169.189 231.838 169.923 231.398C170.662 230.958 171.528 230.739 172.522 230.739C173.19 230.739 173.812 230.846 174.388 231.062C174.968 231.273 175.474 231.592 175.905 232.018C176.34 232.444 176.678 232.981 176.92 233.627C177.162 234.269 177.283 235.021 177.283 235.883V236.654H168.73V234.913H174.638C174.638 234.509 174.551 234.15 174.375 233.838C174.199 233.526 173.955 233.282 173.643 233.106C173.335 232.926 172.977 232.836 172.568 232.836C172.141 232.836 171.763 232.935 171.433 233.133C171.108 233.326 170.853 233.588 170.668 233.917C170.484 234.243 170.389 234.605 170.385 235.005V236.661C170.385 237.162 170.477 237.595 170.662 237.96C170.851 238.325 171.117 238.606 171.46 238.804C171.803 239.002 172.209 239.101 172.68 239.101C172.992 239.101 173.278 239.057 173.537 238.969C173.797 238.881 174.019 238.749 174.203 238.573C174.388 238.397 174.529 238.182 174.625 237.927L177.224 238.098C177.092 238.723 176.821 239.268 176.412 239.734C176.008 240.195 175.485 240.556 174.843 240.815C174.205 241.07 173.469 241.198 172.634 241.198ZM196.807 234.247C196.807 235.72 196.528 236.973 195.969 238.006C195.415 239.039 194.659 239.828 193.701 240.374C192.747 240.914 191.674 241.185 190.483 241.185C189.282 241.185 188.205 240.912 187.251 240.367C186.297 239.822 185.543 239.033 184.989 237.999C184.435 236.966 184.158 235.715 184.158 234.247C184.158 232.774 184.435 231.521 184.989 230.488C185.543 229.455 186.297 228.668 187.251 228.127C188.205 227.582 189.282 227.309 190.483 227.309C191.674 227.309 192.747 227.582 193.701 228.127C194.659 228.668 195.415 229.455 195.969 230.488C196.528 231.521 196.807 232.774 196.807 234.247ZM193.912 234.247C193.912 233.293 193.769 232.488 193.483 231.833C193.202 231.178 192.804 230.681 192.29 230.343C191.775 230.004 191.173 229.835 190.483 229.835C189.792 229.835 189.19 230.004 188.676 230.343C188.161 230.681 187.761 231.178 187.475 231.833C187.194 232.488 187.053 233.293 187.053 234.247C187.053 235.201 187.194 236.006 187.475 236.661C187.761 237.316 188.161 237.813 188.676 238.151C189.19 238.49 189.792 238.659 190.483 238.659C191.173 238.659 191.775 238.49 192.29 238.151C192.804 237.813 193.202 237.316 193.483 236.661C193.769 236.006 193.912 235.201 193.912 234.247ZM202.143 235.144V241H199.334V230.871H202.011V232.658H202.13C202.354 232.069 202.73 231.603 203.257 231.26C203.785 230.912 204.425 230.739 205.177 230.739C205.88 230.739 206.493 230.893 207.016 231.2C207.54 231.508 207.946 231.948 208.236 232.519C208.527 233.086 208.672 233.763 208.672 234.55V241H205.862V235.052C205.867 234.432 205.709 233.948 205.388 233.601C205.067 233.249 204.625 233.073 204.062 233.073C203.684 233.073 203.35 233.154 203.06 233.317C202.774 233.48 202.55 233.717 202.387 234.029C202.229 234.337 202.147 234.709 202.143 235.144ZM215.966 241.198C214.925 241.198 214.028 240.987 213.276 240.565C212.528 240.138 211.952 239.536 211.548 238.758C211.144 237.975 210.941 237.05 210.941 235.981C210.941 234.939 211.144 234.025 211.548 233.238C211.952 232.451 212.522 231.838 213.256 231.398C213.995 230.958 214.861 230.739 215.854 230.739C216.523 230.739 217.145 230.846 217.721 231.062C218.301 231.273 218.807 231.592 219.237 232.018C219.673 232.444 220.011 232.981 220.253 233.627C220.495 234.269 220.616 235.021 220.616 235.883V236.654H212.062V234.913H217.971C217.971 234.509 217.883 234.15 217.707 233.838C217.532 233.526 217.288 233.282 216.975 233.106C216.668 232.926 216.309 232.836 215.901 232.836C215.474 232.836 215.096 232.935 214.766 233.133C214.441 233.326 214.186 233.588 214.001 233.917C213.817 234.243 213.722 234.605 213.718 235.005V236.661C213.718 237.162 213.81 237.595 213.995 237.96C214.184 238.325 214.45 238.606 214.793 238.804C215.136 239.002 215.542 239.101 216.013 239.101C216.325 239.101 216.611 239.057 216.87 238.969C217.129 238.881 217.351 238.749 217.536 238.573C217.721 238.397 217.861 238.182 217.958 237.927L220.556 238.098C220.424 238.723 220.154 239.268 219.745 239.734C219.341 240.195 218.818 240.556 218.176 240.815C217.538 241.07 216.802 241.198 215.966 241.198ZM227.728 227.494H231.25L234.969 236.568H235.128L238.847 227.494H242.369V241H239.599V232.209H239.487L235.992 240.934H234.106L230.61 232.176H230.498V241H227.728V227.494ZM249.71 241.198C248.685 241.198 247.799 240.98 247.052 240.545C246.309 240.105 245.735 239.494 245.331 238.712C244.926 237.925 244.724 237.012 244.724 235.975C244.724 234.928 244.926 234.014 245.331 233.231C245.735 232.444 246.309 231.833 247.052 231.398C247.799 230.958 248.685 230.739 249.71 230.739C250.734 230.739 251.618 230.958 252.361 231.398C253.108 231.833 253.684 232.444 254.088 233.231C254.493 234.014 254.695 234.928 254.695 235.975C254.695 237.012 254.493 237.925 254.088 238.712C253.684 239.494 253.108 240.105 252.361 240.545C251.618 240.98 250.734 241.198 249.71 241.198ZM249.723 239.022C250.189 239.022 250.578 238.89 250.89 238.626C251.202 238.358 251.437 237.993 251.596 237.531C251.758 237.07 251.84 236.544 251.84 235.955C251.84 235.366 251.758 234.841 251.596 234.379C251.437 233.917 251.202 233.552 250.89 233.284C250.578 233.016 250.189 232.882 249.723 232.882C249.252 232.882 248.857 233.016 248.536 233.284C248.219 233.552 247.98 233.917 247.817 234.379C247.659 234.841 247.58 235.366 247.58 235.955C247.58 236.544 247.659 237.07 247.817 237.531C247.98 237.993 248.219 238.358 248.536 238.626C248.857 238.89 249.252 239.022 249.723 239.022ZM259.796 235.144V241H256.986V230.871H259.664V232.658H259.782C260.007 232.069 260.382 231.603 260.91 231.26C261.438 230.912 262.077 230.739 262.829 230.739C263.533 230.739 264.146 230.893 264.669 231.2C265.192 231.508 265.599 231.948 265.889 232.519C266.179 233.086 266.324 233.763 266.324 234.55V241H263.515V235.052C263.519 234.432 263.361 233.948 263.04 233.601C262.719 233.249 262.277 233.073 261.715 233.073C261.337 233.073 261.002 233.154 260.712 233.317C260.426 233.48 260.202 233.717 260.04 234.029C259.881 234.337 259.8 234.709 259.796 235.144ZM274.391 230.871V232.981H268.291V230.871H274.391ZM269.675 228.444H272.485V237.887C272.485 238.147 272.524 238.349 272.603 238.494C272.683 238.635 272.793 238.734 272.933 238.791C273.078 238.848 273.245 238.877 273.434 238.877C273.566 238.877 273.698 238.866 273.83 238.844C273.962 238.817 274.063 238.797 274.133 238.784L274.575 240.875C274.435 240.919 274.237 240.969 273.982 241.026C273.727 241.088 273.417 241.125 273.052 241.138C272.375 241.165 271.781 241.075 271.271 240.868C270.766 240.661 270.372 240.341 270.091 239.905C269.81 239.47 269.671 238.92 269.675 238.257V228.444ZM279.712 235.144V241H276.903V227.494H279.633V232.658H279.751C279.98 232.06 280.349 231.592 280.859 231.253C281.369 230.91 282.009 230.739 282.778 230.739C283.482 230.739 284.095 230.893 284.618 231.2C285.146 231.504 285.555 231.941 285.845 232.513C286.14 233.08 286.285 233.759 286.28 234.55V241H283.471V235.052C283.475 234.427 283.317 233.941 282.996 233.594C282.679 233.247 282.235 233.073 281.664 233.073C281.281 233.073 280.943 233.154 280.648 233.317C280.358 233.48 280.13 233.717 279.962 234.029C279.8 234.337 279.716 234.709 279.712 235.144ZM296.098 241H293.038L297.701 227.494H301.381L306.037 241H302.977L299.594 230.58H299.488L296.098 241ZM295.907 235.691H303.135V237.92H295.907V235.691ZM313.34 230.871V232.981H307.088V230.871H313.34ZM308.519 241V230.139C308.519 229.404 308.662 228.795 308.948 228.312C309.238 227.828 309.633 227.465 310.135 227.224C310.636 226.982 311.205 226.861 311.843 226.861C312.273 226.861 312.667 226.894 313.023 226.96C313.384 227.026 313.652 227.085 313.828 227.138L313.326 229.248C313.216 229.213 313.08 229.18 312.918 229.149C312.759 229.119 312.597 229.103 312.43 229.103C312.016 229.103 311.728 229.2 311.566 229.393C311.403 229.582 311.322 229.848 311.322 230.191V241H308.519ZM320.908 230.871V232.981H314.808V230.871H320.908ZM316.193 228.444H319.002V237.887C319.002 238.147 319.042 238.349 319.121 238.494C319.2 238.635 319.31 238.734 319.451 238.791C319.596 238.848 319.763 238.877 319.952 238.877C320.084 238.877 320.216 238.866 320.347 238.844C320.479 238.817 320.58 238.797 320.651 238.784L321.093 240.875C320.952 240.919 320.754 240.969 320.499 241.026C320.244 241.088 319.934 241.125 319.569 241.138C318.892 241.165 318.299 241.075 317.789 240.868C317.283 240.661 316.89 240.341 316.608 239.905C316.327 239.47 316.188 238.92 316.193 238.257V228.444ZM327.71 241.198C326.668 241.198 325.771 240.987 325.019 240.565C324.272 240.138 323.696 239.536 323.291 238.758C322.887 237.975 322.685 237.05 322.685 235.981C322.685 234.939 322.887 234.025 323.291 233.238C323.696 232.451 324.265 231.838 324.999 231.398C325.738 230.958 326.604 230.739 327.598 230.739C328.266 230.739 328.888 230.846 329.464 231.062C330.044 231.273 330.55 231.592 330.981 232.018C331.416 232.444 331.755 232.981 331.996 233.627C332.238 234.269 332.359 235.021 332.359 235.883V236.654H323.806V234.913H329.715C329.715 234.509 329.627 234.15 329.451 233.838C329.275 233.526 329.031 233.282 328.719 233.106C328.411 232.926 328.053 232.836 327.644 232.836C327.217 232.836 326.839 232.935 326.51 233.133C326.184 233.326 325.929 233.588 325.745 233.917C325.56 234.243 325.465 234.605 325.461 235.005V236.661C325.461 237.162 325.553 237.595 325.738 237.96C325.927 238.325 326.193 238.606 326.536 238.804C326.879 239.002 327.286 239.101 327.756 239.101C328.068 239.101 328.354 239.057 328.613 238.969C328.873 238.881 329.095 238.749 329.279 238.573C329.464 238.397 329.605 238.182 329.701 237.927L332.3 238.098C332.168 238.723 331.897 239.268 331.489 239.734C331.084 240.195 330.561 240.556 329.919 240.815C329.282 241.07 328.545 241.198 327.71 241.198ZM334.657 241V230.871H337.38V232.638H337.486C337.67 232.009 337.98 231.534 338.416 231.213C338.851 230.888 339.352 230.725 339.919 230.725C340.06 230.725 340.212 230.734 340.374 230.752C340.537 230.769 340.68 230.794 340.803 230.824V233.317C340.671 233.278 340.489 233.242 340.256 233.212C340.023 233.181 339.809 233.165 339.616 233.165C339.203 233.165 338.833 233.256 338.508 233.436C338.187 233.612 337.932 233.858 337.743 234.174C337.558 234.491 337.466 234.856 337.466 235.269V241H334.657ZM354.862 231.378C354.809 230.846 354.582 230.433 354.182 230.139C353.782 229.844 353.239 229.697 352.553 229.697C352.087 229.697 351.694 229.763 351.373 229.895C351.052 230.022 350.806 230.2 350.634 230.429C350.467 230.657 350.384 230.917 350.384 231.207C350.375 231.449 350.425 231.66 350.535 231.84C350.65 232.02 350.806 232.176 351.004 232.308C351.201 232.436 351.43 232.548 351.689 232.645C351.949 232.737 352.226 232.816 352.52 232.882L353.734 233.172C354.323 233.304 354.864 233.48 355.356 233.7C355.849 233.919 356.275 234.19 356.635 234.511C356.996 234.832 357.275 235.21 357.473 235.645C357.675 236.08 357.779 236.579 357.783 237.142C357.779 237.969 357.568 238.685 357.15 239.292C356.737 239.894 356.139 240.363 355.356 240.697C354.578 241.026 353.639 241.191 352.54 241.191C351.45 241.191 350.5 241.024 349.691 240.69C348.887 240.356 348.258 239.861 347.805 239.206C347.357 238.547 347.122 237.731 347.1 236.76H349.863C349.893 237.212 350.023 237.591 350.252 237.894C350.485 238.193 350.795 238.419 351.182 238.573C351.573 238.723 352.015 238.797 352.507 238.797C352.991 238.797 353.411 238.727 353.767 238.586C354.127 238.446 354.406 238.25 354.604 237.999C354.802 237.749 354.901 237.461 354.901 237.136C354.901 236.832 354.811 236.577 354.631 236.371C354.455 236.164 354.195 235.988 353.853 235.843C353.514 235.698 353.099 235.566 352.606 235.447L351.135 235.078C349.997 234.801 349.098 234.368 348.438 233.779C347.779 233.19 347.451 232.396 347.456 231.398C347.451 230.58 347.669 229.866 348.109 229.255C348.553 228.644 349.161 228.167 349.935 227.824C350.709 227.481 351.588 227.309 352.573 227.309C353.576 227.309 354.45 227.481 355.198 227.824C355.95 228.167 356.534 228.644 356.952 229.255C357.37 229.866 357.585 230.574 357.598 231.378H354.862ZM360.115 241V230.871H362.925V241H360.115ZM361.526 229.565C361.109 229.565 360.75 229.426 360.452 229.149C360.157 228.868 360.01 228.532 360.01 228.14C360.01 227.753 360.157 227.422 360.452 227.145C360.75 226.863 361.109 226.722 361.526 226.722C361.944 226.722 362.3 226.863 362.595 227.145C362.894 227.422 363.043 227.753 363.043 228.14C363.043 228.532 362.894 228.868 362.595 229.149C362.3 229.426 361.944 229.565 361.526 229.565ZM371.027 230.871V232.981H364.927V230.871H371.027ZM366.312 228.444H369.121V237.887C369.121 238.147 369.161 238.349 369.24 238.494C369.319 238.635 369.429 238.734 369.57 238.791C369.715 238.848 369.882 238.877 370.071 238.877C370.203 238.877 370.335 238.866 370.467 238.844C370.598 238.817 370.7 238.797 370.77 238.784L371.212 240.875C371.071 240.919 370.873 240.969 370.618 241.026C370.363 241.088 370.053 241.125 369.688 241.138C369.011 241.165 368.418 241.075 367.908 240.868C367.402 240.661 367.009 240.341 366.727 239.905C366.446 239.47 366.307 238.92 366.312 238.257V228.444ZM377.829 241.198C376.787 241.198 375.89 240.987 375.138 240.565C374.391 240.138 373.815 239.536 373.41 238.758C373.006 237.975 372.804 237.05 372.804 235.981C372.804 234.939 373.006 234.025 373.41 233.238C373.815 232.451 374.384 231.838 375.118 231.398C375.857 230.958 376.723 230.739 377.717 230.739C378.385 230.739 379.007 230.846 379.583 231.062C380.163 231.273 380.669 231.592 381.1 232.018C381.535 232.444 381.874 232.981 382.115 233.627C382.357 234.269 382.478 235.021 382.478 235.883V236.654H373.925V234.913H379.834C379.834 234.509 379.746 234.15 379.57 233.838C379.394 233.526 379.15 233.282 378.838 233.106C378.53 232.926 378.172 232.836 377.763 232.836C377.336 232.836 376.958 232.935 376.629 233.133C376.303 233.326 376.048 233.588 375.864 233.917C375.679 234.243 375.584 234.605 375.58 235.005V236.661C375.58 237.162 375.672 237.595 375.857 237.96C376.046 238.325 376.312 238.606 376.655 238.804C376.998 239.002 377.405 239.101 377.875 239.101C378.187 239.101 378.473 239.057 378.732 238.969C378.992 238.881 379.214 238.749 379.398 238.573C379.583 238.397 379.724 238.182 379.82 237.927L382.419 238.098C382.287 238.723 382.017 239.268 381.608 239.734C381.203 240.195 380.68 240.556 380.038 240.815C379.401 241.07 378.664 241.198 377.829 241.198ZM389.591 241V227.494H392.446V238.646H398.237V241H389.591ZM403.428 241.191C402.781 241.191 402.205 241.079 401.7 240.855C401.194 240.626 400.794 240.29 400.5 239.846C400.209 239.397 400.064 238.839 400.064 238.171C400.064 237.608 400.168 237.136 400.374 236.753C400.581 236.371 400.862 236.063 401.218 235.83C401.574 235.597 401.979 235.421 402.432 235.302C402.889 235.183 403.368 235.1 403.869 235.052C404.459 234.99 404.933 234.933 405.294 234.88C405.654 234.823 405.916 234.739 406.079 234.63C406.241 234.52 406.323 234.357 406.323 234.142V234.102C406.323 233.684 406.191 233.361 405.927 233.133C405.668 232.904 405.298 232.79 404.819 232.79C404.313 232.79 403.911 232.902 403.612 233.126C403.313 233.346 403.115 233.623 403.019 233.957L400.42 233.746C400.552 233.13 400.812 232.598 401.199 232.15C401.585 231.697 402.084 231.35 402.696 231.108C403.311 230.862 404.023 230.739 404.832 230.739C405.395 230.739 405.934 230.805 406.448 230.936C406.967 231.068 407.426 231.273 407.826 231.55C408.231 231.827 408.549 232.183 408.782 232.618C409.015 233.049 409.132 233.566 409.132 234.168V241H406.468V239.595H406.389C406.226 239.912 406.008 240.191 405.736 240.433C405.463 240.67 405.136 240.857 404.753 240.993C404.371 241.125 403.929 241.191 403.428 241.191ZM404.232 239.252C404.645 239.252 405.01 239.171 405.327 239.008C405.643 238.841 405.892 238.617 406.072 238.336C406.252 238.054 406.342 237.736 406.342 237.38V236.305C406.254 236.362 406.134 236.414 405.98 236.463C405.83 236.507 405.661 236.549 405.472 236.588C405.283 236.623 405.094 236.656 404.905 236.687C404.716 236.713 404.544 236.738 404.39 236.76C404.061 236.808 403.773 236.885 403.526 236.99C403.28 237.096 403.089 237.239 402.953 237.419C402.816 237.595 402.748 237.815 402.748 238.079C402.748 238.461 402.887 238.753 403.164 238.956C403.445 239.153 403.801 239.252 404.232 239.252ZM418.272 236.687V230.871H421.081V241H418.384V239.16H418.278C418.05 239.754 417.669 240.231 417.137 240.591C416.61 240.952 415.966 241.132 415.205 241.132C414.528 241.132 413.932 240.978 413.418 240.67C412.903 240.363 412.501 239.925 412.211 239.358C411.925 238.791 411.78 238.112 411.776 237.32V230.871H414.585V236.819C414.59 237.417 414.75 237.889 415.067 238.237C415.383 238.584 415.807 238.758 416.339 238.758C416.678 238.758 416.994 238.681 417.289 238.527C417.584 238.369 417.821 238.136 418.001 237.828C418.186 237.52 418.276 237.14 418.272 236.687ZM426.602 235.144V241H423.792V230.871H426.47V232.658H426.588C426.813 232.069 427.189 231.603 427.716 231.26C428.244 230.912 428.883 230.739 429.635 230.739C430.339 230.739 430.952 230.893 431.475 231.2C431.998 231.508 432.405 231.948 432.695 232.519C432.985 233.086 433.13 233.763 433.13 234.55V241H430.321V235.052C430.325 234.432 430.167 233.948 429.846 233.601C429.525 233.249 429.083 233.073 428.521 233.073C428.143 233.073 427.809 233.154 427.518 233.317C427.233 233.48 427.008 233.717 426.846 234.029C426.687 234.337 426.606 234.709 426.602 235.144ZM440.386 241.198C439.348 241.198 438.456 240.978 437.708 240.538C436.965 240.094 436.394 239.479 435.994 238.692C435.598 237.905 435.4 236.999 435.4 235.975C435.4 234.937 435.6 234.027 436 233.245C436.405 232.458 436.978 231.844 437.721 231.405C438.464 230.961 439.348 230.739 440.372 230.739C441.256 230.739 442.03 230.899 442.694 231.22C443.358 231.541 443.883 231.992 444.27 232.572C444.657 233.152 444.87 233.834 444.91 234.616H442.258C442.184 234.111 441.986 233.704 441.665 233.396C441.348 233.084 440.933 232.928 440.419 232.928C439.983 232.928 439.603 233.047 439.278 233.284C438.957 233.517 438.706 233.858 438.526 234.306C438.346 234.755 438.256 235.298 438.256 235.935C438.256 236.582 438.343 237.131 438.519 237.584C438.7 238.037 438.952 238.382 439.278 238.619C439.603 238.857 439.983 238.975 440.419 238.975C440.74 238.975 441.027 238.909 441.282 238.778C441.542 238.646 441.755 238.454 441.922 238.204C442.094 237.949 442.206 237.643 442.258 237.287H444.91C444.866 238.061 444.655 238.742 444.276 239.332C443.903 239.916 443.386 240.374 442.727 240.703C442.067 241.033 441.287 241.198 440.386 241.198ZM449.982 235.144V241H447.173V227.494H449.903V232.658H450.021C450.25 232.06 450.619 231.592 451.129 231.253C451.639 230.91 452.279 230.739 453.048 230.739C453.752 230.739 454.365 230.893 454.888 231.2C455.416 231.504 455.825 231.941 456.115 232.513C456.41 233.08 456.555 233.759 456.55 234.55V241H453.741V235.052C453.745 234.427 453.587 233.941 453.266 233.594C452.949 233.247 452.505 233.073 451.934 233.073C451.551 233.073 451.213 233.154 450.918 233.317C450.628 233.48 450.4 233.717 450.232 234.029C450.07 234.337 449.986 234.709 449.982 235.144Z" fill="#E84D28" fill-opacity="0.83"/>
</svg>
