<svg width="34" height="34" viewBox="0 0 34 34" fill="none" xmlns="http://www.w3.org/2000/svg">
<circle cx="17" cy="17" r="17" fill="#FFE9E3"/>
<path d="M22.3333 10V19.3333H25V10H22.3333Z" fill="#E84D28"/>
<path fill-rule="evenodd" clip-rule="evenodd" d="M18.3333 21.6852L19.6667 19.0186V11.3333H12.4907L10.3333 15.6481V18.6667C10.3333 19.0349 10.6318 19.3333 11 19.3333H17V24C17 24.3682 17.2985 24.6667 17.6667 24.6667H18.3333V21.6852ZM19.6667 26H17.6667C16.5621 26 15.6667 25.1046 15.6667 24V20.6667H11C9.89543 20.6667 9 19.7712 9 18.6667V15.3333L11.6667 10H21V19.3333L19.6667 22V26Z" fill="#E84D28"/>
</svg>
