<svg width="34" height="34" viewBox="0 0 34 34" fill="none" xmlns="http://www.w3.org/2000/svg">
<circle cx="17" cy="17" r="17" fill="#E5F4E9"/>
<path d="M11.6667 25L11.6667 15.6667L9 15.6667L9 25L11.6667 25Z" fill="#34A853"/>
<path fill-rule="evenodd" clip-rule="evenodd" d="M15.6667 13.3148L14.3333 15.9814L14.3333 23.6667L21.5093 23.6667L23.6667 19.3519L23.6667 16.3333C23.6667 15.9651 23.3682 15.6667 23 15.6667L17 15.6667L17 11C17 10.6318 16.7015 10.3333 16.3333 10.3333L15.6667 10.3333L15.6667 13.3148ZM14.3333 9L16.3333 9C17.4379 9 18.3333 9.89543 18.3333 11L18.3333 14.3333L23 14.3333C24.1046 14.3333 25 15.2288 25 16.3333L25 19.6667L22.3333 25L13 25L13 15.6667L14.3333 13L14.3333 9Z" fill="#34A853"/>
</svg>
